<?xml version="1.0" encoding="utf-8"?>
<!-- Generator: Adobe Illustrator 27.8.1, SVG Export Plug-In . SVG Version: 6.00 Build 0)  -->
<svg version="1.1" id="Layer_1" xmlns="http://www.w3.org/2000/svg" xmlns:xlink="http://www.w3.org/1999/xlink" x="0px" y="0px"
	 viewBox="0 0 273 273" style="enable-background:new 0 0 273 273;" xml:space="preserve">
<style type="text/css">
	.st0{fill:#FFFFFF;}
	.st1{fill:#D49429;}
</style>
<path d="M216.46,273H56.54C25.31,273,0,247.69,0,216.46L0,56.54C0,25.31,25.31,0,56.54,0l159.93,0C247.69,0,273,25.31,273,56.54
	v159.93C273,247.69,247.69,273,216.46,273z"/>
<g>
	<g>
		<g>
			<g>
				<path class="st0" d="M128.55,115.15v21.26v2.33h2.33h25.82v9.21H89.29h-2.06l-0.25,2.04l-1.18,9.56
					c-0.95,7.84-4.29,14.23-10.19,19.56c-5.9,5.31-12.59,7.9-20.46,7.9c-18.85,0-28.02-9.83-28.02-30.05c0-3.71,1.07-7.3,3.19-10.68
					c0.43-0.69,0.89-1.34,1.37-1.95c-0.34,2.09-0.51,4.47-0.51,7.14c0,0.98,0.16,3.03,1.57,9.58c1.14,5.28,3.93,9.5,8.3,12.54
					c4.04,2.8,8.87,4.22,14.34,4.22c6.5,0,12.15-2.22,16.77-6.6c4.66-4.41,7.03-9.97,7.03-16.53v-30.31l9.21-9.21v21.26v2.33h2.33
					h6.26h2.33v-2.33v-12.06l9.12-9.18v21.24v2.33h2.33h6.26h2.33v-2.33v-12.05L128.55,115.15 M130.88,109.54l-13.86,13.86v13.02
					h-6.26v-26.88L96.98,123.4v13.02h-6.26v-26.88L76.86,123.4v31.28c0,5.92-2.1,10.86-6.3,14.84c-4.2,3.97-9.26,5.96-15.17,5.96
					c-5.02,0-9.36-1.27-13.02-3.8c-3.89-2.71-6.34-6.41-7.35-11.12c-1.01-4.71-1.52-7.73-1.52-9.09c0-7.38,1.35-12.31,4.06-14.79
					c-3.78,1.8-6.85,4.59-9.21,8.37c-2.37,3.78-3.55,7.75-3.55,11.92c0,21.58,10.11,32.38,30.35,32.38c8.4,0,15.74-2.83,22.02-8.5
					c6.28-5.66,9.93-12.67,10.95-21.01l1.18-9.55h69.74v-13.86h-28.15V109.54L130.88,109.54z"/>
			</g>
			<g>
				<g>
					<path class="st1" d="M205.64,136.41c1.58-3.49,2.37-7.66,2.37-12.51c0-6.15-2.1-11.31-6.3-15.52
						c-4.19-4.19-9.37-6.29-15.5-6.29c-6.83,0-12.36,2.28-16.62,6.84c-4.25,4.56-6.39,10.26-6.39,17.07c0,2.66,0.71,6.12,2.12,10.4
						h-8.63v13.86h70.64v-13.86H205.64z M192.21,132.65c-1.81,1.89-3.98,2.84-6.52,2.84c-2.76,0-5.03-0.89-6.81-2.67
						c-1.77-1.77-2.66-4.04-2.66-6.81c0-6.13,3.15-9.21,9.46-9.21c2.71,0,4.92,0.86,6.64,2.59c1.73,1.71,2.58,3.93,2.58,6.63
						C194.9,128.55,194.01,130.77,192.21,132.65z"/>
				</g>
			</g>
			<g>
				<g>
					<polygon class="st1" points="224.96,136.42 234.35,136.42 234.35,122.55 248.21,108.44 248.21,150.28 224.96,150.28 					"/>
				</g>
			</g>
			<g>
				<g>
					<path class="st0" d="M101.02,160.98h5.29l11.93,14.63v-11.25c0-1.21-0.16-1.99-0.48-2.33c-0.32-0.35-1.08-0.52-2.28-0.52v-0.53
						h6.79v0.53c-1.19,0-1.95,0.18-2.27,0.53c-0.33,0.35-0.49,1.12-0.49,2.32v16.44h-0.52l-12.86-15.71v12.01
						c0,1.19,0.14,1.94,0.42,2.26c0.33,0.39,1.11,0.59,2.34,0.59v0.53h-6.79v-0.53c1.19,0,1.95-0.18,2.29-0.55
						c0.32-0.34,0.47-1.1,0.47-2.3v-13.57c-0.63-0.74-1.18-1.25-1.65-1.52c-0.59-0.34-1.31-0.5-2.19-0.5V160.98z"/>
				</g>
				<g>
					<path class="st0" d="M139.29,173.96h-7.55c-0.35,0.76-0.69,1.52-1.04,2.29c-0.52,1.22-0.78,2.05-0.78,2.49
						c0,0.71,0.75,1.12,2.26,1.22v0.53h-6.14v-0.53c0.8-0.14,1.32-0.33,1.58-0.56c0.47-0.42,1.01-1.36,1.63-2.81l6.86-16.05h0.5
						l6.79,16.23c0.44,1.06,0.83,1.79,1.17,2.17c0.54,0.62,1.27,0.96,2.19,1.02v0.53h-7.7v-0.53c1.32-0.07,1.99-0.47,1.99-1.19
						c0-0.46-0.25-1.3-0.75-2.52C139.96,175.49,139.63,174.73,139.29,173.96z M138.89,172.89l-3.31-7.88l-3.4,7.88H138.89z"/>
				</g>
				<g>
					<path class="st0" d="M163.69,173.96h-7.55c-0.35,0.76-0.69,1.52-1.04,2.29c-0.52,1.22-0.78,2.05-0.78,2.49
						c0,0.71,0.75,1.12,2.26,1.22v0.53h-6.14v-0.53c0.8-0.14,1.32-0.33,1.58-0.56c0.47-0.42,1.01-1.36,1.63-2.81l6.86-16.05h0.5
						l6.79,16.23c0.44,1.06,0.83,1.79,1.17,2.17c0.54,0.62,1.27,0.96,2.19,1.02v0.53h-7.7v-0.53c1.32-0.07,1.99-0.47,1.99-1.19
						c0-0.46-0.25-1.3-0.75-2.52C164.36,175.49,164.03,174.73,163.69,173.96z M163.29,172.89l-3.31-7.88l-3.4,7.88H163.29z"/>
				</g>
				<g>
					<path class="st0" d="M183.41,169.67l7.19,7.15c1.99,1.98,3.83,3.02,5.52,3.14v0.53h-9.28v-0.53c1.05,0,1.57-0.3,1.57-0.91
						c0-0.41-0.35-0.96-1.04-1.64l-6.73-6.66v6.29c0,1.25,0.14,2.03,0.43,2.36c0.32,0.37,1.09,0.56,2.33,0.56v0.53h-8.32v-0.53
						c1.25,0,2.04-0.21,2.37-0.62c0.28-0.34,0.42-1.1,0.42-2.3v-12.6c0-1.21-0.14-1.98-0.42-2.32c-0.34-0.4-1.13-0.6-2.37-0.6v-0.53
						h8.32v0.53c-1.23,0-2.01,0.21-2.36,0.63c-0.27,0.34-0.4,1.1-0.4,2.29v5.97c1.42-1.3,2.84-2.61,4.26-3.93
						c2.18-2.12,3.27-3.5,3.27-4.13c0-0.56-0.59-0.83-1.77-0.83v-0.53h7.16v0.53c-1.18,0.03-2.49,0.68-3.94,1.94
						c-1.08,1.08-2.16,2.17-3.24,3.25L183.41,169.67z"/>
				</g>
				<g>
					<path class="st0" d="M212.52,160.54v6.75h-0.53c-0.22-1.63-0.75-2.94-1.6-3.93c-0.96-1.11-2.23-1.67-3.8-1.67
						c-0.9,0-1.69,0.27-2.37,0.81c-0.72,0.58-1.08,1.3-1.08,2.19c0,1.12,0.92,2.23,2.76,3.32c1.72,0.98,3.43,1.96,5.15,2.95
						c1.84,1.32,2.76,2.84,2.76,4.56c0,1.64-0.62,2.97-1.87,3.98c-1.17,0.96-2.59,1.44-4.27,1.44c-0.79,0-1.76-0.18-2.91-0.55
						c-1.15-0.37-1.92-0.55-2.32-0.55c-0.49,0-0.78,0.37-0.88,1.11h-0.53v-6.69h0.53c0.65,3.71,2.58,5.57,5.8,5.57
						c1.05,0,1.94-0.26,2.66-0.79c0.82-0.58,1.22-1.39,1.22-2.4c0-1.26-0.9-2.45-2.69-3.57c-1.67-0.98-3.34-1.95-5.02-2.92
						c-1.79-1.29-2.69-2.78-2.69-4.46c0-1.53,0.58-2.79,1.73-3.75c1.09-0.92,2.42-1.38,3.99-1.38c0.72,0,1.6,0.19,2.65,0.56
						c1.05,0.37,1.64,0.56,1.78,0.56c0.51,0,0.84-0.37,0.99-1.12H212.52z"/>
				</g>
				<g>
					<path class="st0" d="M224.58,170.03h9.06v-5.58c0-1.26-0.14-2.05-0.43-2.37c-0.33-0.37-1.11-0.56-2.36-0.56v-0.53h8.34v0.53
						c-1.16,0-1.92,0.17-2.27,0.5c-0.35,0.34-0.53,1.07-0.53,2.22v13.01c0,1.18,0.17,1.93,0.5,2.24c0.33,0.32,1.1,0.47,2.29,0.47
						v0.53h-8.34v-0.53c1.21,0,1.98-0.18,2.3-0.55c0.33-0.36,0.49-1.16,0.49-2.37v-5.94h-9.06v5.94c0,1.24,0.13,2.01,0.4,2.33
						c0.33,0.39,1.13,0.59,2.4,0.59v0.53h-8.36v-0.53c1.25,0,2.04-0.21,2.37-0.62c0.28-0.34,0.42-1.1,0.42-2.3v-12.59
						c0-1.26-0.14-2.05-0.43-2.37c-0.33-0.37-1.11-0.56-2.36-0.56v-0.53h8.36v0.53c-1.17,0-1.93,0.17-2.28,0.5
						c-0.35,0.33-0.53,1.07-0.53,2.22V170.03z"/>
				</g>
			</g>
			<g>
				<path class="st1" d="M247.4,185.96H92.82v-30.44H247.4V185.96z M94.26,184.52h151.7v-27.56H94.26V184.52z"/>
			</g>
			<g>
				<g>
					
						<rect x="227.9" y="82.01" transform="matrix(0.7071 -0.7071 0.7071 0.7071 5.7288 192.4926)" class="st1" width="14.64" height="14.64"/>
				</g>
			</g>
			<g>
				<g>
					
						<rect x="189.27" y="82.01" transform="matrix(0.7071 -0.7071 0.7071 0.7071 -5.586 165.1762)" class="st1" width="14.64" height="14.64"/>
				</g>
			</g>
			<g>
				<g>
					
						<rect x="168.36" y="82.01" transform="matrix(0.7071 -0.7071 0.7071 0.7071 -11.7112 150.3887)" class="st1" width="14.64" height="14.64"/>
				</g>
			</g>
			<g>
				<path class="st0" d="M119.03,82.27l7.06,7.06l-7.06,7.06l-7.06-7.06L119.03,82.27 M119.03,78.98l-10.35,10.35l10.35,10.35
					l10.35-10.35L119.03,78.98L119.03,78.98z"/>
			</g>
			<g>
				<path class="st0" d="M108.68,66.96l7.06,7.06l-7.06,7.06l-7.06-7.06L108.68,66.96 M108.68,63.67L98.32,74.02l10.35,10.35
					l10.35-10.35L108.68,63.67L108.68,63.67z"/>
			</g>
			<g>
				<path class="st0" d="M97.94,82.27l7.06,7.06l-7.06,7.06l-7.06-7.06L97.94,82.27 M97.94,78.98L87.58,89.33l10.35,10.35
					l10.35-10.35L97.94,78.98L97.94,78.98z"/>
			</g>
		</g>
	</g>
</g>
</svg>
